#!OML:ASF I:\Actors\actors\Patient Classification 1\Patient 1\Session 1\Subject1.ASF
:FULLY-SPECIFIED
:DEGREES
773
root 0.697494 17.6303 8.30651 7.18278 1.19643 -9.73777
lowerback 1.17429 0.243452 4.76068
upperback -6.46416 0.752359 2.84533
thorax -7.40711 0.185788 0.264117
lowerneck -12.4819 -11.3609 -10.9395
upperneck 25.2832 -17.4108 12.6068
head 12.5958 -7.53643 3.77826
rclavicle -1.15544e-014 2.78299e-015
rhumerus -46.2727 69.6077 -144.326
rradius 126.212
rwrist 7.96343
rhand -4.97152 -34.3374
rfingers 7.12502
rthumb 20.8208 -63.2403
lclavicle -1.15544e-014 2.78299e-015
lhumerus 76.1146 -71.5752 20.1389
lradius 107.34
lwrist 50.379
lhand 15.966 -5.58315
lfingers 7.12502
lthumb 40.7601 19.409
rfemur -8.00698 19.4161 26.8726
rtibia 11.042
rfoot -13.561 -17.7855
rtoes -2.52611
lfemur -1.06863 -31.7312 -5.7489
ltibia 0.0541603
lfoot -12.1309 38.7413
ltoes -3.2623
774
root 0.691957 17.6345 8.31515 7.3539 1.26866 -9.41157
lowerback 0.909034 0.183504 4.31737
upperback -6.50283 0.628607 2.77207
thorax -7.29674 0.150009 0.443666
lowerneck -12.4855 -11.1628 -10.5413
upperneck 25.307 -17.1233 12.3213
head 12.4891 -7.40376 3.66528
rclavicle 9.7653e-015 -8.34896e-015
rhumerus -45.6781 69.6072 -143.727
rradius 126.479
rwrist 9.16319
rhand -4.94683 -33.9089
rfingers 7.12502
rthumb 20.8445 -62.8092
lclavicle 9.7653e-015 -8.34896e-015
lhumerus 81.3889 -70.6931 15.1087
lradius 108.761
lwrist 51.2401
lhand 12.0703 -2.08593
lfingers 7.12502
lthumb 37.0872 23.9559
rfemur -8.21205 19.5759 26.4365
rtibia 11.0864
rfoot -13.6147 -18.0057
rtoes -2.34095
lfemur -1.31132 -31.9222 -5.99998
ltibia 0.0978092
lfoot -12.1709 38.8523
ltoes -3.29628
775
root 0.690744 17.6349 8.32014 7.34611 1.31548 -9.48719
lowerback 0.879145 0.0915032 4.48258
upperback -6.48752 0.507297 2.72972
thorax -7.26544 0.0791701 0.315812
lowerneck -12.6201 -10.8575 -10.0576
upperneck 25.423 -16.6788 11.959
head 12.41 -7.19313 3.53385
rclavicle 1.28216e-014 -6.16232e-014
rhumerus -45.1771 69.7076 -143.309
rradius 126.43
rwrist 10.106
rhand -5.23229 -33.7853
rfingers 7.12502
rthumb 20.5702 -62.7154
lclavicle 1.28216e-014 -6.16232e-014
lhumerus 84.3182 -70.1066 11.9621
lradius 109.139
lwrist 52.1707
lhand 8.06847 1.08542
lfingers 7.12502
lthumb 33.2921 28.0235
rfemur -8.2415 19.5903 26.5408
rtibia 11.1948
rfoot -13.6582 -18.0474
rtoes -2.37765
lfemur -1.29233 -31.956 -5.90975
ltibia 0.0745776
lfoot -12.1956 38.8631
ltoes -3.37488
776
root 0.694248 17.6299 8.32155 7.11403 1.37227 -9.98072
lowerback 1.07887 -0.0291115 5.20027
upperback -6.42454 0.395622 2.79857
thorax -7.32138 -0.0167316 -0.00320405
lowerneck -12.6728 -10.534 -9.70471
upperneck 25.5769 -16.1748 11.5473
head 12.3334 -6.97677 3.4185
rclavicle -1.44119e-015 -7.95139e-016
rhumerus -45.1357 69.8738 -143.34
rradius 126.149
rwrist 9.98363
rhand -6.01814 -33.6594
rfingers 7.12502
rthumb 19.8149 -62.6693
lclavicle -1.44119e-015 -7.95139e-016
lhumerus 85.1364 -69.9489 10.594
lradius 108.762
lwrist 53.541
lhand 7.09646 0.287767
lfingers 7.12502
lthumb 32.3675 27.4193
rfemur -8.0088 19.5027 27.224
rtibia 11.3206
rfoot -13.7393 -17.9701
rtoes -2.61145
lfemur -0.975507 -31.7864 -5.46747
ltibia -0.0258414
lfoot -12.1239 38.6904
ltoes -3.62702
777
root 0.704409 17.6184 8.32199 6.71981 1.43734 -10.8221
lowerback 1.40865 -0.179875 6.3561
upperback -6.3315 0.286979 2.98951
thorax -7.43027 -0.133498 -0.435407
lowerneck -12.6192 -10.2084 -9.33674
upperneck 25.7471 -15.6549 11.0448
head 12.2337 -6.76669 3.27316
rclavicle -1.73937e-016 6.75868e-015
rhumerus -45.7771 70.1599 -143.936
rradius 125.849
rwrist 9.32126
rhand -7.05709 -33.6499
rfingers 7.12502
rthumb 18.8159 -62.7599
lclavicle -1.73937e-016 6.75868e-015
lhumerus 84.2338 -70.1492 10.7954
lradius 108.258
lwrist 55.3282
lhand 8.02631 0.238543
lfingers 7.12502
lthumb 33.252 27.1852
rfemur -7.53282 19.1747 28.3557
rtibia 11.3533
rfoot -13.8162 -17.6202
rtoes -2.59826
lfemur -0.421879 -31.4166 -4.75097
ltibia -0.174112
lfoot -11.9259 38.3415
ltoes -4.28593
778
root 0.707504 17.6165 8.33059 6.65373 1.22577 -10.7259
lowerback 1.28463 -0.250262 6.35152
upperback -6.28096 0.175221 2.96019
thorax -7.309 -0.186132 -0.456687
lowerneck -12.6086 -9.84134 -8.83515
upperneck 25.936 -15.0858 10.476
head 12.1317 -6.52672 3.087
rclavicle 1.3244e-014 8.74653e-015
rhumerus -46.104 72.7847 -143.924
rradius 125.761
rwrist 8.2161
rhand -9.29282 -35.1997
rfingers 7.12502
rthumb 16.6646 -64.5043
lclavicle 1.3244e-014 8.74653e-015
lhumerus 82.7084 -70.5348 11.5482
lradius 107.638
lwrist 56.5876
lhand 8.78712 0.693934
lfingers 7.12502
lthumb 33.9751 27.4832
rfemur -7.43734 19.1162 28.2527
rtibia 11.3732
rfoot -13.8553 -17.3623
rtoes -2.33073
lfemur -0.175876 -31.3011 -5.03135
ltibia -0.157791
lfoot -12.1169 38.3842
ltoes -4.18827
